<?xml version="1.0" encoding="UTF-8"?>
<svg xmlns="http://www.w3.org/2000/svg" xmlns:xlink="http://www.w3.org/1999/xlink" width="40px" height="40px" viewBox="0 0 40 40" version="1.1">
<g id="surface1">
<path style=" stroke:none;fill-rule:nonzero;fill:rgb(0%,0%,0%);fill-opacity:1;" d="M 20.003906 40 C 12.808594 40.082031 6.121094 36.289062 2.496094 30.066406 C -1.125 23.847656 -1.125 16.160156 2.496094 9.9375 C 6.117188 3.71875 12.804688 -0.078125 20.003906 0.00390625 C 30.960938 0.125 39.78125 9.042969 39.78125 20 C 39.78125 30.957031 30.960938 39.875 20.003906 40 Z M 19.957031 6.460938 C 16.199219 6.46875 13.15625 9.523438 13.164062 13.28125 C 13.164062 17.050781 16.203125 20.105469 19.957031 20.105469 C 23.710938 20.105469 26.753906 17.050781 26.753906 13.28125 C 26.761719 9.523438 23.71875 6.46875 19.957031 6.460938 Z M 25.671875 20.632812 C 24.089844 21.886719 22.125 23.207031 20.066406 23.207031 C 17.980469 23.207031 15.996094 21.875 14.40625 20.589844 C 10.210938 22.136719 8.335938 27.539062 8.335938 30.003906 L 31.671875 30.003906 C 31.671875 27.558594 29.785156 22.199219 25.671875 20.632812 Z M 25.671875 20.632812 "/>
</g>
</svg>
